<svg xmlns="http://www.w3.org/2000/svg" xmlns:xlink="http://www.w3.org/1999/xlink" id="_&#x421;&#x43B;&#x43E;&#x439;_2" data-name="&#x421;&#x43B;&#x43E;&#x439; 2" viewBox="0 0 313.51 120.43"><defs><style>      .cls-1 {        fill: url(#linear-gradient-2);      }      .cls-2 {        fill: url(#linear-gradient-5);      }      .cls-3 {        fill: #5f29a1;      }      .cls-4 {        fill: url(#linear-gradient-3);      }      .cls-5 {        fill: url(#linear-gradient);      }      .cls-6 {        fill: url(#linear-gradient-4);      }    </style><linearGradient id="linear-gradient" x1="0" y1="45.97" x2="94.58" y2="45.97" gradientUnits="userSpaceOnUse"><stop offset="0" stop-color="#9152de"></stop><stop offset=".12" stop-color="#8447ce"></stop><stop offset=".39" stop-color="#6931ad"></stop><stop offset=".54" stop-color="#5f29a1"></stop><stop offset="1" stop-color="#204782"></stop></linearGradient><linearGradient id="linear-gradient-2" x1="0" y1="79.36" x2="24.95" y2="79.36" xlink:href="#linear-gradient"></linearGradient><linearGradient id="linear-gradient-3" x1="69.63" y1="12.58" x2="94.58" y2="12.58" xlink:href="#linear-gradient"></linearGradient><linearGradient id="linear-gradient-4" x1="160.45" y1="45.87" x2="313.51" y2="45.87" xlink:href="#linear-gradient"></linearGradient><linearGradient id="linear-gradient-5" x1="107.64" y1="45.76" x2="169.71" y2="45.76" xlink:href="#linear-gradient"></linearGradient></defs><g id="Layer_1" data-name="Layer 1"><g><path class="cls-3" d="m10.09,111.47c-.51-.35-1.1-.62-1.78-.79-.13-.03-.26-.05-.39-.07.17-.05.36-.08.52-.14.73-.28,1.3-.7,1.71-1.25s.61-1.21.61-1.98c0-.94-.2-1.72-.61-2.32s-.98-1.06-1.71-1.35c-.73-.3-1.59-.45-2.58-.45H1.62v16.49h4.48c1.07,0,2.02-.18,2.86-.53.84-.35,1.51-.89,2-1.6.49-.71.74-1.61.74-2.7,0-.75-.14-1.41-.42-1.96-.28-.55-.68-1-1.19-1.35Zm-4.23-6.58c.83,0,1.52.22,2.07.65.55.43.82,1.04.82,1.83,0,.52-.13.96-.38,1.32s-.6.64-1.04.82c-.44.19-.93.28-1.48.28h-2.24v-4.9h2.24Zm3.38,11.5c-.31.47-.73.83-1.27,1.08-.54.25-1.17.38-1.87.38h-2.47v-6.31h2.47c.53,0,1.02.07,1.46.2.44.13.82.33,1.14.6.32.27.57.6.74.99s.26.84.26,1.34c0,.67-.15,1.25-.46,1.72Z"></path><polygon class="cls-3" points="15.87 103.12 14.76 103.12 14.76 119.61 15.87 119.61 16.76 119.61 24.18 119.61 24.18 117.72 16.76 117.72 16.76 111.6 23.71 111.6 23.71 109.71 16.76 109.71 16.76 105 24.18 105 24.18 103.12 16.76 103.12 15.87 103.12"></polygon><polygon class="cls-3" points="26.07 105 30.31 105 30.31 119.61 32.31 119.61 32.31 105 36.55 105 36.55 103.12 26.07 103.12 26.07 105"></polygon><polygon class="cls-3" points="37.73 105 41.97 105 41.97 119.61 43.97 119.61 43.97 105 48.21 105 48.21 103.12 37.73 103.12 37.73 105"></polygon><polygon class="cls-3" points="51.44 103.12 50.33 103.12 50.33 119.61 51.44 119.61 52.33 119.61 59.75 119.61 59.75 117.72 52.33 117.72 52.33 111.6 59.28 111.6 59.28 109.71 52.33 109.71 52.33 105 59.75 105 59.75 103.12 52.33 103.12 51.44 103.12"></polygon><path class="cls-3" d="m70.62,112.41c.84-.4,1.51-.97,2-1.72.49-.75.74-1.62.74-2.63s-.25-1.9-.74-2.64-1.16-1.31-2-1.71c-.84-.4-1.79-.6-2.86-.6h-4.48v16.49h2v-6.6h2.01l4.59,6.6h2.47l-4.92-6.79c.42-.1.81-.23,1.19-.41Zm-5.33-7.53h2.47c.71,0,1.33.13,1.87.38.54.25.97.61,1.27,1.08.31.47.46,1.04.46,1.72s-.15,1.25-.46,1.72c-.31.47-.73.83-1.27,1.08-.54.25-1.17.38-1.87.38h-2.47v-6.36Z"></path><path class="cls-3" d="m98.7,114.71c.42-1.04.62-2.15.62-3.34s-.21-2.33-.62-3.36-1-1.92-1.75-2.69c-.75-.76-1.64-1.36-2.65-1.79-1.01-.43-2.12-.65-3.33-.65s-2.3.22-3.32.65c-1.02.43-1.91,1.03-2.66,1.79s-1.34,1.66-1.75,2.69-.62,2.15-.62,3.36.21,2.31.62,3.34,1,1.94,1.75,2.7,1.64,1.36,2.66,1.79c1.02.43,2.13.65,3.32.65s2.32-.22,3.33-.65c.68-.29,1.29-.66,1.85-1.09l1.51,1.51h2.59l-2.78-2.78c.51-.63.92-1.33,1.24-2.12Zm-4.52,2.29c-.93.57-2.01.85-3.22.85s-2.26-.28-3.2-.85c-.94-.57-1.68-1.33-2.23-2.31-.54-.97-.81-2.08-.81-3.32s.27-2.35.81-3.32c.54-.97,1.28-1.74,2.23-2.31.94-.57,2.01-.85,3.2-.85s2.28.28,3.22.85c.93.57,1.67,1.33,2.21,2.31.54.97.81,2.08.81,3.32s-.27,2.35-.81,3.32c-.13.23-.27.45-.42.65l-2.8-2.8h-2.59l4.1,4.1c-.16.12-.33.25-.51.35Z"></path><path class="cls-3" d="m111.24,114.19c0,1.13-.31,2.04-.92,2.73-.61.69-1.51,1.04-2.69,1.04s-2.07-.35-2.69-1.04c-.61-.69-.92-1.6-.92-2.73v-11.07h-2v11.07c0,.82.13,1.57.39,2.26s.64,1.29,1.13,1.79c.49.5,1.09.9,1.78,1.18.69.28,1.46.42,2.31.42s1.62-.14,2.31-.42c.69-.28,1.28-.67,1.78-1.18.49-.5.87-1.1,1.13-1.79.26-.69.39-1.44.39-2.26v-11.07h-2v11.07Z"></path><path class="cls-3" d="m115.13,119.61h2.24l2.09-4.95h6.64l2.1,4.95h2.24l-7.66-17.31-7.66,17.31Zm10.18-6.83h-5.05l2.52-5.94,2.53,5.94Z"></path><polygon class="cls-3" points="134.44 103.12 132.44 103.12 132.44 119.61 140.92 119.61 140.92 117.72 134.44 117.72 134.44 103.12"></polygon><rect class="cls-3" x="143.04" y="103.12" width="2" height="16.49"></rect><polygon class="cls-3" points="147.16 105 151.4 105 151.4 119.61 153.4 119.61 153.4 105 157.65 105 157.65 103.12 147.16 103.12 147.16 105"></polygon><polygon class="cls-3" points="165.18 110.75 160.94 103.12 158.7 103.12 164.19 112.52 164.19 119.61 166.2 119.61 166.2 112.5 171.68 103.12 169.45 103.12 165.18 110.75"></polygon><path class="cls-3" d="m178.99,119.61h2.24l2.09-4.95h6.64l2.1,4.95h2.24l-7.66-17.31-7.66,17.31Zm10.18-6.83h-5.04l2.52-5.94,2.53,5.94Z"></path><path class="cls-3" d="m204.84,111.8c-.42-.38-.87-.7-1.35-.95-.49-.25-.95-.46-1.39-.61-.96-.33-1.72-.66-2.27-1-.56-.34-.95-.7-1.19-1.08-.24-.38-.35-.8-.35-1.26,0-.53.2-1.02.61-1.45s1.06-.65,1.96-.65c.64,0,1.19.13,1.64.38.45.25.83.57,1.14.97s.57.79.78,1.2l1.72-.99c-.27-.58-.64-1.13-1.11-1.66-.47-.53-1.04-.96-1.71-1.3-.67-.34-1.45-.51-2.34-.51s-1.75.18-2.47.55c-.72.37-1.29.88-1.7,1.52-.41.64-.61,1.37-.61,2.19,0,.75.15,1.39.44,1.91.29.52.66.95,1.12,1.31.46.35.93.64,1.44.87s.96.41,1.37.55c.63.22,1.22.47,1.78.74s1.01.63,1.35,1.07c.35.44.52,1.03.52,1.77s-.27,1.38-.8,1.86c-.53.49-1.24.73-2.12.73-.66,0-1.25-.14-1.77-.42-.52-.28-.99-.67-1.4-1.18-.42-.5-.81-1.08-1.19-1.74l-1.6,1.08c.36.72.83,1.4,1.4,2.04.57.64,1.24,1.15,2,1.53s1.59.58,2.49.58c.66,0,1.29-.11,1.9-.33s1.15-.53,1.63-.94c.48-.41.86-.9,1.13-1.48.28-.58.41-1.23.41-1.96s-.13-1.4-.4-1.94c-.27-.54-.61-1-1.03-1.39Z"></path><path class="cls-3" d="m217.74,111.8c-.42-.38-.87-.7-1.35-.95-.49-.25-.95-.46-1.39-.61-.96-.33-1.72-.66-2.27-1-.56-.34-.95-.7-1.19-1.08-.24-.38-.35-.8-.35-1.26,0-.53.2-1.02.61-1.45s1.06-.65,1.96-.65c.64,0,1.19.13,1.64.38.45.25.83.57,1.14.97s.57.79.78,1.2l1.72-.99c-.27-.58-.64-1.13-1.11-1.66-.47-.53-1.04-.96-1.71-1.3-.67-.34-1.45-.51-2.34-.51s-1.75.18-2.47.55c-.72.37-1.29.88-1.7,1.52-.41.64-.61,1.37-.61,2.19,0,.75.15,1.39.44,1.91.29.52.66.95,1.12,1.31.46.35.93.64,1.44.87s.96.41,1.37.55c.63.22,1.22.47,1.78.74s1.01.63,1.35,1.07c.35.44.52,1.03.52,1.77s-.27,1.38-.8,1.86c-.53.49-1.24.73-2.12.73-.66,0-1.25-.14-1.77-.42-.52-.28-.99-.67-1.4-1.18-.42-.5-.81-1.08-1.19-1.74l-1.6,1.08c.36.72.83,1.4,1.4,2.04.57.64,1.24,1.15,2,1.53s1.59.58,2.49.58c.66,0,1.29-.11,1.9-.33s1.15-.53,1.63-.94c.48-.41.86-.9,1.13-1.48.28-.58.41-1.23.41-1.96s-.13-1.4-.4-1.94c-.27-.54-.61-1-1.03-1.39Z"></path><path class="cls-3" d="m231.21,114.19c0,1.13-.31,2.04-.92,2.73-.61.69-1.51,1.04-2.68,1.04s-2.07-.35-2.69-1.04c-.61-.69-.92-1.6-.92-2.73v-11.07h-2v11.07c0,.82.13,1.57.39,2.26s.64,1.29,1.13,1.79c.49.5,1.09.9,1.78,1.18.69.28,1.46.42,2.31.42s1.62-.14,2.31-.42c.69-.28,1.28-.67,1.78-1.18.49-.5.87-1.1,1.13-1.79.26-.69.39-1.44.39-2.26v-11.07h-2v11.07Z"></path><path class="cls-3" d="m244.2,112.41c.84-.4,1.51-.97,2-1.72.5-.75.74-1.62.74-2.63s-.25-1.9-.74-2.64c-.49-.74-1.16-1.31-2-1.71s-1.79-.6-2.86-.6h-4.48v16.49h2v-6.6h2.01l4.59,6.6h2.47l-4.92-6.79c.42-.1.81-.23,1.19-.41Zm-5.33-7.53h2.47c.71,0,1.33.13,1.87.38s.97.61,1.27,1.08c.31.47.46,1.04.46,1.72s-.15,1.25-.46,1.72c-.31.47-.73.83-1.27,1.08-.54.25-1.17.38-1.87.38h-2.47v-6.36Z"></path><path class="cls-3" d="m248.28,119.61h2.24l2.09-4.95h6.64l2.1,4.95h2.24l-7.66-17.31-7.66,17.31Zm10.18-6.83h-5.04l2.52-5.94,2.53,5.94Z"></path><polygon class="cls-3" points="278.08 115.39 265.6 102.3 265.6 119.61 267.6 119.61 267.6 107.34 280.08 120.43 280.08 103.12 278.08 103.12 278.08 115.39"></polygon><path class="cls-3" d="m291.15,102.88c-1.15,0-2.22.21-3.21.62-1,.42-1.87,1-2.63,1.77s-1.34,1.66-1.77,2.7c-.42,1.04-.64,2.17-.64,3.39s.21,2.36.64,3.39,1.01,1.94,1.77,2.7,1.63,1.35,2.63,1.77c1,.42,2.07.62,3.21.62,1.21,0,2.22-.15,3.04-.45s1.57-.75,2.26-1.37v-2.64c-.38.49-.83.92-1.37,1.28s-1.13.66-1.78.86c-.65.21-1.37.31-2.16.31-1.08,0-2.09-.27-3.01-.82-.93-.55-1.68-1.31-2.25-2.29s-.86-2.1-.86-3.37.29-2.41.86-3.38,1.32-1.72,2.25-2.27c.93-.55,1.93-.82,3.01-.82.79,0,1.5.1,2.16.31.65.2,1.24.49,1.78.86s.99.8,1.37,1.28v-2.64c-.69-.61-1.45-1.07-2.26-1.37s-1.83-.45-3.04-.45Z"></path><polygon class="cls-3" points="309.41 105 309.41 103.12 301.99 103.12 301.09 103.12 299.99 103.12 299.99 119.61 301.09 119.61 301.99 119.61 309.41 119.61 309.41 117.72 301.99 117.72 301.99 111.6 308.94 111.6 308.94 109.71 301.99 109.71 301.99 105 309.41 105"></polygon><g><path class="cls-5" d="m45.38,25.3c-1.9-.02-3.81-.23-5.64-.97-3.34-1.36-5.24-3.94-6.22-7.32-2.2-7.61,3.26-15.69,10.98-16.67,4.2-.53,7.86.51,10.89,3.52,1.8,1.79,2.81,4.02,3.52,6.42.66,2.2,1.23,4.43,2.02,6.57,2.68,7.24,7.92,11.7,15.3,13.69,2.18.59,4.43.92,6.63,1.43,3.68.86,6.74,2.71,8.85,5.91,3.17,4.8,2.76,11.05-1.05,15.54-.83.98-1.84,1.82-2.77,2.72-.88.86-1.62,1.82-2.06,2.98-.84,2.23-.35,4.22,1.2,5.95.55.61,1.19,1.16,1.86,1.63,6.98,4.76,7.2,14.49,2.23,19.85-2.99,3.22-6.73,4.55-11.04,4.06-6.15-.69-10.53-4.87-11.71-10.95-.38-1.96-.61-3.97-1.24-5.85-2.47-7.45-7.65-12.01-15.27-13.77-1.42-.33-2.91-.37-4.36-.59-2.93-.45-5.66-1.4-8.04-3.23-2.79-2.14-4.47-5.02-5.4-8.34-.47-1.66-.73-3.39-1.15-5.07-1.03-4.13-3.03-7.68-6.47-10.31-.95-.73-1.97-1.37-2.97-2.05-.19-.13-.41-.23-.62-.32-1.58-.67-2.8-.21-3.58,1.32-.51,1.01-.3,1.76.57,2.46,1.05.84,2.12,1.66,3.05,2.62,2.34,2.4,3.81,5.32,4.75,8.5.63,2.12,1.06,4.3,1.65,6.44,1.21,4.35,3.87,7.65,7.53,10.18,3.18,2.2,6.72,3.36,10.59,3.63,2.51.17,5.03.41,7.33,1.57,4.57,2.32,7.22,6.01,7.4,11.16.19,5.16-1.87,9.37-6.51,11.86-4.77,2.56-9.67,2.57-14.32-.44-2.6-1.68-4.12-4.25-5.2-7.1-.72-1.89-1.17-3.84-1.39-5.85-.35-3.22-1.75-5.98-3.99-8.29-3.17-3.25-6.82-5.78-11.25-6.98-1.71-.46-3.49-.67-5.24-1.01-2.04-.39-4.06-.85-5.94-1.8-4.72-2.41-7.49-7.25-7.07-12.53.25-3.13,1.54-5.84,3.6-8.17,1.08-1.22,2.25-2.35,3.34-3.55.46-.51.86-1.07,1.21-1.66.74-1.29.64-2.56-.18-3.79-.68-1.02-1.62-1.76-2.54-2.55-1.2-1.02-2.47-1.99-3.5-3.17C-1.83,17.19-.42,9.25,3.93,4.99c2-1.96,4.45-3.02,7.2-3.4,2.34-.33,4.65-.27,6.88.61,3.95,1.55,6.44,4.49,7.71,8.46.62,1.94.91,3.99,1.54,5.93,1.61,4.95,4.16,9.28,8.56,12.3,2.56,1.76,5.44,2.68,8.5,3.08,2.31.3,4.61.63,6.84,1.32,4.79,1.48,7.79,4.68,9.15,9.45.49,1.71.8,3.47,1.26,5.18,1.01,3.78,2.82,7.14,5.6,9.91,1.43,1.43,2.98,2.72,4.8,3.64,1.75.89,3.52-.01,3.9-1.96.11-.57-.04-1.08-.52-1.41-4.47-3.02-6.8-7.45-8.24-12.47-.46-1.6-.91-3.21-1.28-4.84-.64-2.79-1.93-5.24-3.77-7.4-3.25-3.82-7.28-6.43-12.16-7.67-1.46-.37-2.95-.53-4.51-.45Zm.24-3.29c1.84-.04,3.65.17,5.42.64,5.01,1.34,9.23,3.98,12.75,7.77,2.55,2.75,4.34,5.92,5.22,9.6.5,2.11,1.09,4.2,1.75,6.26,1.2,3.75,3.19,6.96,6.55,9.21,1,.67,1.58,1.68,1.79,2.87.42,2.48-1.19,5.32-3.59,6.36-1.92.83-3.75.49-5.47-.52-5.67-3.35-9.47-8.2-11.38-14.5-.54-1.77-.86-3.61-1.33-5.4-.5-1.92-1.27-3.72-2.66-5.2-1.47-1.56-3.33-2.44-5.37-2.89-2.15-.47-4.33-.77-6.5-1.14-4.61-.78-8.65-2.7-11.97-6.03-3.09-3.1-5.19-6.83-6.56-10.95-.58-1.76-.91-3.6-1.37-5.4-.68-2.66-1.95-4.96-4.29-6.49-3.18-2.07-6.58-1.96-9.9-.5C3.69,7.9,1.77,14.5,4.61,19.35c.99,1.69,2.43,2.92,3.95,4.08,1.14.88,2.23,1.82,3.1,2.98,1.26,1.7,1.85,3.57,1.4,5.68-.31,1.46-1.02,2.72-2,3.82-1.1,1.23-2.28,2.4-3.41,3.62-1.74,1.89-2.94,4.06-3.1,6.67-.24,3.98,1.46,6.97,4.85,9.02,1.76,1.07,3.75,1.43,5.73,1.81,1.84.36,3.71.58,5.5,1.09,5.06,1.43,9.26,4.32,12.82,8.13,2.61,2.8,4.19,6.13,4.59,9.95.23,2.27.86,4.41,1.84,6.45,1.11,2.34,2.75,4.17,5.24,5.1,1.89.71,3.84.76,5.82.42,4.21-.72,7.32-3.92,7.91-8.16.59-4.3-1.56-8.31-5.41-10.15-1.95-.93-4.05-1.14-6.15-1.28-4.84-.32-9.22-1.87-13.09-4.79-3.92-2.95-6.73-6.71-8.03-11.49-.54-2-.95-4.04-1.53-6.03-1.17-4.03-3.28-7.43-6.85-9.82-1.15-.77-1.83-1.92-1.99-3.32-.46-4.21,3.67-7.57,7.7-6.27,1.27.41,2.31,1.21,3.42,1.91,4.79,3.06,7.69,7.45,9.14,12.86.45,1.69.71,3.42,1.15,5.11.62,2.38,1.71,4.52,3.55,6.22,2.17,2.02,4.84,2.89,7.71,3.31,1.7.25,3.44.34,5.08.78,8.36,2.25,14.02,7.48,16.76,15.71.66,1.97.92,4.07,1.31,6.12.91,4.77,4.08,7.88,8.87,8.47,3.12.38,5.88-.55,8.1-2.83,3.85-3.95,3.84-11.44-1.49-15.1-.97-.66-1.87-1.48-2.64-2.36-1.82-2.1-2.59-4.57-2.12-7.35.42-2.47,1.75-4.45,3.54-6.14.72-.67,1.48-1.3,2.14-2.03,2.97-3.34,3.42-8.01,1.14-11.64-1.64-2.61-4.1-4.05-7.04-4.73-2.2-.51-4.45-.84-6.63-1.43-9.03-2.44-15.12-8.07-18.04-17.01-.73-2.24-1.32-4.52-2.07-6.76-1.47-4.41-5.28-6.83-9.87-6.44-6.41.54-10.27,7.06-8.89,12.17.69,2.57,1.93,4.63,4.52,5.63,1.45.56,2.98.67,4.51.67Z"></path><path class="cls-1" d="m12.48,91.74c-6.74.01-12.35-5.52-12.48-12.07-.13-6.85,5.38-12.68,12.45-12.69,6.86,0,12.48,5.51,12.49,12.27,0,6.93-5.53,12.48-12.47,12.5Zm9.18-12.38c0-5.02-4.08-9.08-9.15-9.1-5.05-.02-9.2,4.04-9.21,8.99,0,5.12,4.09,9.23,9.18,9.21,5.05-.02,9.17-4.1,9.17-9.09Z"></path><path class="cls-4" d="m81.86.2c6.81-.08,12.37,5.06,12.7,11.76.35,6.9-4.93,12.58-11.69,12.98-7.09.42-12.95-4.96-13.23-11.87-.28-6.93,5.1-12.58,12.22-12.87Zm.22,21.48c5.03.03,9.16-4.02,9.22-9.04.06-4.97-4.11-9.13-9.17-9.15-4.99-.02-9.17,4.05-9.21,8.96-.04,5.1,4.03,9.2,9.16,9.24Z"></path></g><g><path class="cls-6" d="m268.23,0l-18.16,29.47c-.19-.52-.38-1.04-.59-1.55-2.25-5.48-5.44-10.23-9.57-14.24-4.13-4.01-8.98-7.1-14.54-9.26-5.56-2.17-11.66-3.25-18.28-3.25s-12.64,1.09-18.28,3.25c-5.65,2.17-10.6,5.26-14.85,9.26-4.26,4.01-7.57,8.76-9.94,14.24-2.37,5.48-3.56,11.54-3.56,18.16s1.15,12.72,3.44,18.29c2.29,5.56,5.54,10.39,9.76,14.48,4.21,4.09,9.14,7.26,14.79,9.51,5.65,2.25,11.86,3.37,18.65,3.37,1.61,0,3.19-.07,4.74-.2l-.04.07h35.16l7.72-16.87h27.25l8.04,16.57h23.56L268.23,0Zm-37.44,60.22l-9.23-8h-21.48l19.8,18.94c-3.32,1.52-7.1,2.29-11.34,2.29-4.83,0-9.22-1.12-13.19-3.37-3.97-2.25-7.12-5.42-9.45-9.51-2.33-4.09-3.5-8.92-3.5-14.48,0-5.07,1.04-9.55,3.13-13.44,2.09-3.88,4.97-6.93,8.65-9.14,3.68-2.21,7.98-3.31,12.89-3.31,5.48,0,10.16,1.29,14.05,3.87,3.88,2.58,6.87,5.99,8.96,10.25,2.09,4.25,3.13,8.96,3.13,14.11,0,4.4-.81,8.33-2.43,11.8Zm27.91-1.31l9.52-21.97,9.58,21.97h-19.11Z"></path><path class="cls-2" d="m156.56,45.73c0-6.95,1.24-13.29,3.73-19.03,1.86-4.3,4.28-8.17,7.24-11.6-.51-.94-1.1-1.82-1.78-2.65-2.66-3.23-6.26-5.64-10.8-7.24-4.54-1.6-9.8-2.39-15.77-2.39h-31.54v85.9h33.62c6.79,0,12.68-.84,17.67-2.52,4.51-1.51,8.09-3.79,10.77-6.81-4.08-4.14-7.27-8.96-9.55-14.48-2.4-5.83-3.6-12.22-3.6-19.16Zm-28.17-26.85h8.59c3.52,0,6.28.74,8.28,2.21,2,1.47,3.01,3.68,3.01,6.63,0,1.96-.45,3.62-1.35,4.97-.9,1.35-2.19,2.39-3.87,3.13-1.68.74-3.7,1.1-6.07,1.1h-8.59v-18.04Zm22.89,49.27c-1.27,1.6-2.97,2.74-5.09,3.44-2.13.7-4.54,1.04-7.24,1.04h-10.55v-21.23h10.55c2.04,0,3.91.18,5.58.55,1.68.37,3.17.96,4.48,1.78,1.31.82,2.33,1.88,3.07,3.19.74,1.31,1.1,2.86,1.1,4.66,0,2.78-.63,4.97-1.9,6.57Z"></path></g></g></g></svg>